<svg width="26" height="20" viewBox="0 0 26 20" fill="none" xmlns="http://www.w3.org/2000/svg">
<path d="M25.2934 5.44006L19.4268 9.8134V19.3601H23.5334C24.4934 19.3601 25.2934 18.5867 25.2934 17.6001V5.44006Z" fill="#4CAF50"/>
<path d="M0.707031 5.44006L6.54703 9.84006V19.3867H2.46703C1.50703 19.3867 0.707031 18.6134 0.707031 17.6267V5.44006Z" fill="#1E88E5"/>
<path d="M19.4266 2.50671L12.9999 7.33338L6.57324 2.50671V9.81338L12.9999 14.64L19.4266 9.81338V2.50671Z" fill="#E53935"/>
<path d="M0.707031 3.14668V5.44001L6.54703 9.84001V2.50668L4.7337 1.14668C4.30703 0.826681 3.7737 0.640015 3.2137 0.640015C1.82703 0.640015 0.707031 1.76001 0.707031 3.14668Z" fill="#C62828"/>
<path d="M25.2934 3.14668V5.44001L19.4268 9.81335V2.50668L21.2668 1.14668C21.6934 0.826681 22.2268 0.640015 22.7868 0.640015C24.1734 0.640015 25.2934 1.76001 25.2934 3.14668Z" fill="#FBC02D"/>
</svg>
