<svg width="24" height="24" viewBox="0 0 24 24" fill="none" xmlns="http://www.w3.org/2000/svg">
<g clip-path="url(#clip0_358_25)">
<path fill-rule="evenodd" clip-rule="evenodd" d="M18 24H6C4.40872 23.9999 2.88264 23.3678 1.75744 22.2426C0.632233 21.1174 6.96138e-05 19.5913 0 18L0 6C6.96138e-05 4.40872 0.632233 2.88264 1.75744 1.75744C2.88264 0.632233 4.40872 6.96138e-05 6 0L18 0C19.5913 0 21.1174 0.632141 22.2426 1.75736C23.3679 2.88258 24 4.4087 24 6V18C24 19.5913 23.3679 21.1174 22.2426 22.2426C21.1174 23.3679 19.5913 24 18 24Z" fill="#00D264"/>
<path fill-rule="evenodd" clip-rule="evenodd" d="M11.25 6.75H18C18.8652 6.74995 19.6974 6.41762 20.3246 5.82165C20.9519 5.22569 21.3263 4.41159 21.3706 3.5475C21.4149 2.68341 21.1256 1.83531 20.5626 1.17835C19.9995 0.521389 19.2057 0.105743 18.345 0.01725C18.2302 0.010875 18.1166 0 18 0H6C4.40872 6.96138e-05 2.88264 0.632233 1.75744 1.75744C0.632233 2.88264 6.96138e-05 4.40872 0 6L0 18C6.96164e-05 15.0163 1.18536 12.1549 3.29513 10.0451C5.40489 7.93536 8.26634 6.75007 11.25 6.75Z" fill="#00EB78"/>
<path fill-rule="evenodd" clip-rule="evenodd" d="M18 12C16.8133 12 15.6533 12.3519 14.6666 13.0112C13.6799 13.6705 12.9109 14.6075 12.4567 15.7039C12.0026 16.8003 11.8838 18.0067 12.1153 19.1705C12.3468 20.3344 12.9182 21.4035 13.7574 22.2426C14.5965 23.0818 15.6656 23.6532 16.8295 23.8847C17.9933 24.1162 19.1997 23.9974 20.2961 23.5433C21.3925 23.0892 22.3295 22.3201 22.9888 21.3334C23.6481 20.3467 24 19.1867 24 18V6C24 7.5913 23.3679 9.11742 22.2426 10.2426C21.1174 11.3679 19.5913 12 18 12Z" fill="#00B950"/>
<path fill-rule="evenodd" clip-rule="evenodd" d="M8.1274 17.6599C8.22721 17.6315 8.33183 17.6241 8.43465 17.6382C8.53747 17.6523 8.63625 17.6875 8.72477 17.7417C10.2158 18.63 11.98 18.9429 13.6856 18.6216C15.3912 18.3003 16.9206 17.3669 17.9862 15.997C19.0518 14.627 19.5802 12.915 19.4719 11.1828C19.3636 9.45056 18.6262 7.81759 17.3983 6.591C16.1704 5.36441 14.5367 4.62872 12.8044 4.5223C11.072 4.41587 9.36052 4.94605 7.99171 6.01312C6.62291 7.08019 5.69114 8.6106 5.37166 10.3165C5.05217 12.0225 5.36699 13.7863 6.2569 15.2764C6.31086 15.3647 6.34592 15.4632 6.35986 15.5657C6.37381 15.6682 6.36633 15.7724 6.3379 15.8719C6.12902 16.611 5.62502 18.375 5.62502 18.375C5.62502 18.375 7.38902 17.871 8.1274 17.6599ZM4.95715 16.0253C3.88499 14.218 3.5095 12.0814 3.90117 10.0168C4.29284 7.95221 5.42473 6.10162 7.0843 4.81252C8.74388 3.52343 10.817 2.88451 12.9143 3.01575C15.0116 3.14699 16.9889 4.03936 18.4748 5.52528C19.9607 7.01121 20.8531 8.98847 20.9843 11.0858C21.1155 13.1831 20.4766 15.2562 19.1875 16.9158C17.8984 18.5753 16.0478 19.7072 13.9833 20.0989C11.9187 20.4906 9.7821 20.1151 7.97477 19.0429C7.97477 19.0429 5.5834 19.7262 4.39915 20.0648C4.33481 20.0831 4.26676 20.0839 4.20201 20.0671C4.13727 20.0503 4.0782 20.0165 4.0309 19.9692C3.9836 19.9219 3.9498 19.8628 3.93299 19.798C3.91618 19.7333 3.91696 19.6652 3.93527 19.6009C4.2739 18.4167 4.95715 16.0253 4.95715 16.0253Z" fill="white"/>
<path fill-rule="evenodd" clip-rule="evenodd" d="M8.24255 9.29482C8.35922 10.974 9.07586 12.5552 10.2617 13.7498C11.4475 14.9444 13.0233 15.6727 14.7016 15.8018H14.7023C14.9703 15.8226 15.2395 15.785 15.4916 15.6918C15.7437 15.5986 15.9726 15.4519 16.1626 15.2618L16.4243 15.0001C16.5479 14.8764 16.6173 14.7088 16.6174 14.5339V13.9782C16.6174 13.9085 16.598 13.8402 16.5614 13.7809C16.5248 13.7217 16.4724 13.6738 16.4101 13.6426C16.0152 13.4453 15.1579 13.0167 14.7379 12.8067C14.6675 12.7715 14.5878 12.7593 14.5101 12.7719C14.4323 12.7845 14.3605 12.8212 14.3048 12.8768C14.0956 13.0861 13.7648 13.4172 13.5773 13.6043C13.5337 13.648 13.4799 13.6802 13.4209 13.6981C13.3618 13.716 13.2992 13.7191 13.2387 13.7071L13.2353 13.7063C12.5093 13.5611 11.8425 13.2043 11.319 12.6807C10.7955 12.1572 10.4386 11.4904 10.2934 10.7644L10.2927 10.7611C10.2806 10.7005 10.2837 10.638 10.3016 10.5789C10.3196 10.5198 10.3518 10.4661 10.3954 10.4224C10.5826 10.2349 10.9137 9.9042 11.1229 9.69495C11.1786 9.63923 11.2153 9.56743 11.2279 9.4897C11.2405 9.41197 11.2283 9.33225 11.1931 9.26182C10.9831 8.84182 10.5544 7.98457 10.3572 7.5897C10.326 7.52739 10.2781 7.47499 10.2188 7.43837C10.1595 7.40174 10.0912 7.38234 10.0216 7.38232H9.54905C9.43685 7.38236 9.32591 7.40594 9.2234 7.45155C9.12088 7.49715 9.02908 7.56376 8.95393 7.64707C8.87855 7.73107 8.79193 7.82707 8.70493 7.92382C8.54119 8.10553 8.41571 8.31833 8.33595 8.54955C8.25619 8.78078 8.22379 9.02569 8.24068 9.2697C8.24143 9.27795 8.2418 9.2862 8.24255 9.29482Z" fill="white"/>
</g>
<defs>
<clipPath id="clip0_358_25">
<rect width="24" height="24" fill="white"/>
</clipPath>
</defs>
</svg>
